<svg xmlns:xlink="http://www.w3.org/1999/xlink" version="1.1" class="highcharts-root" style="font-family:&quot;Lucida Grande&quot;, &quot;Lucida Sans Unicode&quot;, Arial, Helvetica, sans-serif;font-size:12px;" xmlns="http://www.w3.org/2000/svg" width="600" height="400" viewBox="0 0 600 400"><desc>Created with Highcharts 9.3.1</desc><defs><clipPath id="highcharts-s74cms3-84-"><rect x="0" y="0" width="516" height="323" fill="none"></rect></clipPath><clipPath id="highcharts-s74cms3-122-"><rect x="0" y="0" width="516" height="323" fill="none"></rect></clipPath><clipPath id="highcharts-s74cms3-160-"><rect x="74" y="10" width="516" height="323" fill="none"></rect></clipPath></defs><rect fill="transparent" class="highcharts-background" x="0" y="0" width="600" height="400" rx="0" ry="0"></rect><rect fill="none" class="highcharts-plot-background" x="74" y="10" width="516" height="323"></rect><g class="highcharts-pane-group" data-z-index="0"></g><g class="highcharts-grid highcharts-xaxis-grid" data-z-index="1"><path fill="none" stroke-dasharray="none" data-z-index="1" class="highcharts-grid-line" d="M 80.5 10 L 80.5 333" opacity="1"></path><path fill="none" stroke-dasharray="none" data-z-index="1" class="highcharts-grid-line" d="M 108.5 10 L 108.5 333" opacity="1"></path><path fill="none" stroke-dasharray="none" data-z-index="1" class="highcharts-grid-line" d="M 136.5 10 L 136.5 333" opacity="1"></path><path fill="none" stroke-dasharray="none" data-z-index="1" class="highcharts-grid-line" d="M 164.5 10 L 164.5 333" opacity="1"></path><path fill="none" stroke-dasharray="none" data-z-index="1" class="highcharts-grid-line" d="M 192.5 10 L 192.5 333" opacity="1"></path><path fill="none" stroke-dasharray="none" data-z-index="1" class="highcharts-grid-line" d="M 219.5 10 L 219.5 333" opacity="1"></path><path fill="none" stroke-dasharray="none" data-z-index="1" class="highcharts-grid-line" d="M 247.5 10 L 247.5 333" opacity="1"></path><path fill="none" stroke-dasharray="none" data-z-index="1" class="highcharts-grid-line" d="M 275.5 10 L 275.5 333" opacity="1"></path><path fill="none" stroke-dasharray="none" data-z-index="1" class="highcharts-grid-line" d="M 303.5 10 L 303.5 333" opacity="1"></path><path fill="none" stroke-dasharray="none" data-z-index="1" class="highcharts-grid-line" d="M 331.5 10 L 331.5 333" opacity="1"></path><path fill="none" stroke-dasharray="none" data-z-index="1" class="highcharts-grid-line" d="M 359.5 10 L 359.5 333" opacity="1"></path><path fill="none" stroke-dasharray="none" data-z-index="1" class="highcharts-grid-line" d="M 387.5 10 L 387.5 333" opacity="1"></path><path fill="none" stroke-dasharray="none" data-z-index="1" class="highcharts-grid-line" d="M 415.5 10 L 415.5 333" opacity="1"></path><path fill="none" stroke-dasharray="none" data-z-index="1" class="highcharts-grid-line" d="M 443.5 10 L 443.5 333" opacity="1"></path><path fill="none" stroke-dasharray="none" data-z-index="1" class="highcharts-grid-line" d="M 470.5 10 L 470.5 333" opacity="1"></path><path fill="none" stroke-dasharray="none" data-z-index="1" class="highcharts-grid-line" d="M 498.5 10 L 498.5 333" opacity="1"></path><path fill="none" stroke-dasharray="none" data-z-index="1" class="highcharts-grid-line" d="M 526.5 10 L 526.5 333" opacity="1"></path><path fill="none" stroke-dasharray="none" data-z-index="1" class="highcharts-grid-line" d="M 554.5 10 L 554.5 333" opacity="1"></path><path fill="none" stroke-dasharray="none" data-z-index="1" class="highcharts-grid-line" d="M 582.5 10 L 582.5 333" opacity="1"></path></g><g class="highcharts-grid highcharts-xaxis-grid" data-z-index="1"></g><g class="highcharts-grid highcharts-yaxis-grid" data-z-index="1"><path fill="none" stroke="#e6e6e6" stroke-width="1" stroke-dasharray="none" data-z-index="1" class="highcharts-grid-line" d="M 74 333.5 L 590 333.5" opacity="1"></path><path fill="none" stroke="#e6e6e6" stroke-width="1" stroke-dasharray="none" data-z-index="1" class="highcharts-grid-line" d="M 74 268.5 L 590 268.5" opacity="1"></path><path fill="none" stroke="#e6e6e6" stroke-width="1" stroke-dasharray="none" data-z-index="1" class="highcharts-grid-line" d="M 74 204.5 L 590 204.5" opacity="1"></path><path fill="none" stroke="#e6e6e6" stroke-width="1" stroke-dasharray="none" data-z-index="1" class="highcharts-grid-line" d="M 74 139.5 L 590 139.5" opacity="1"></path><path fill="none" stroke="#e6e6e6" stroke-width="1" stroke-dasharray="none" data-z-index="1" class="highcharts-grid-line" d="M 74 75.5 L 590 75.5" opacity="1"></path><path fill="none" stroke="#e6e6e6" stroke-width="1" stroke-dasharray="none" data-z-index="1" class="highcharts-grid-line" d="M 74 9.5 L 590 9.5" opacity="1"></path></g><rect fill="none" class="highcharts-plot-border" data-z-index="1" x="74" y="10" width="516" height="323"></rect><g class="highcharts-axis highcharts-xaxis" data-z-index="2"><path fill="none" class="highcharts-axis-line" stroke="#ccd6eb" stroke-width="1" data-z-index="7" d="M 74 333.5 L 590 333.5"></path></g><g class="highcharts-axis highcharts-xaxis" data-z-index="2"><path fill="none" class="highcharts-axis-line" stroke="#ccd6eb" stroke-width="1" data-z-index="7" d="M 74 385.5 L 590 385.5"></path></g><g class="highcharts-axis highcharts-yaxis" data-z-index="2"><text x="26.0888671875" data-z-index="7" text-anchor="middle" transform="translate(0,0) rotate(270 26.0888671875 171.5)" class="highcharts-axis-title" style="color:#666666;fill:#666666;" y="171.5">入组例数</text><path fill="none" class="highcharts-axis-line" data-z-index="7" d="M 74 10 L 74 333"></path></g><g class="highcharts-series-group" data-z-index="3"><g class="highcharts-series highcharts-series-0 highcharts-line-series" data-z-index="0.1" opacity="1" transform="translate(74,10) scale(1 1)" clip-path="url(#highcharts-s74cms3-122-)"><path fill="none" d="M 6.972972972973 322.9677 L 20.918918918919 322.9354 L 34.864864864865 322.677 L 48.810810810811 322.3217 L 62.756756756757 321.6757 L 76.702702702703 321.062 L 90.648648648649 319.8023 L 104.59459459459 318.0258 L 118.54054054054 315.0865 L 132.48648648649 310.2092 L 146.43243243243 305.1381 L 160.37837837838 300.1316 L 174.32432432432 294.3499 L 188.27027027027 287.8576 L 202.21621621622 281.01 L 216.16216216216 276.0358 L 230.10810810811 269.2528 L 244.05405405405 262.6313 L 258 256.5912 L 271.94594594595 249.8405 L 285.89189189189 245.1893" class="highcharts-graph" data-z-index="1" stroke="#ffdc7e" stroke-width="2" stroke-dasharray="2,2"></path></g><g class="highcharts-markers highcharts-series-0 highcharts-line-series" data-z-index="0.1" opacity="1" transform="translate(74,10) scale(1 1)" clip-path="none"><path fill="#ffdc7e" d="M 6 319 L 10 327 L 2 327 Z" opacity="1" class="highcharts-point"></path><path fill="#ffdc7e" d="M 20 319 L 24 327 L 16 327 Z" opacity="1" class="highcharts-point"></path><path fill="#ffdc7e" d="M 34 319 L 38 327 L 30 327 Z" opacity="1" class="highcharts-point"></path><path fill="#ffdc7e" d="M 48 318 L 52 326 L 44 326 Z" opacity="1" class="highcharts-point"></path><path fill="#ffdc7e" d="M 62 318 L 66 326 L 58 326 Z" opacity="1" class="highcharts-point"></path><path fill="#ffdc7e" d="M 76 317 L 80 325 L 72 325 Z" opacity="1" class="highcharts-point"></path><path fill="#ffdc7e" d="M 90 316 L 94 324 L 86 324 Z" opacity="1" class="highcharts-point"></path><path fill="#ffdc7e" d="M 104 314 L 108 322 L 100 322 Z" opacity="1" class="highcharts-point"></path><path fill="#ffdc7e" d="M 118 311 L 122 319 L 114 319 Z" opacity="1" class="highcharts-point"></path><path fill="#ffdc7e" d="M 132 306 L 136 314 L 128 314 Z" opacity="1" class="highcharts-point"></path><path fill="#ffdc7e" d="M 146 301 L 150 309 L 142 309 Z" opacity="1" class="highcharts-point"></path><path fill="#ffdc7e" d="M 160 296 L 164 304 L 156 304 Z" opacity="1" class="highcharts-point"></path><path fill="#ffdc7e" d="M 174 290 L 178 298 L 170 298 Z" opacity="1" class="highcharts-point"></path><path fill="#ffdc7e" d="M 188 284 L 192 292 L 184 292 Z" opacity="1" class="highcharts-point"></path><path fill="#ffdc7e" d="M 202 277 L 206 285 L 198 285 Z" opacity="1" class="highcharts-point"></path><path fill="#ffdc7e" d="M 216 272 L 220 280 L 212 280 Z" opacity="1" class="highcharts-point"></path><path fill="#ffdc7e" d="M 230 265 L 234 273 L 226 273 Z" opacity="1" class="highcharts-point"></path><path fill="#ffdc7e" d="M 244 259 L 248 267 L 240 267 Z" opacity="1" class="highcharts-point"></path><path fill="#ffdc7e" d="M 258 253 L 262 261 L 254 261 Z" opacity="1" class="highcharts-point"></path><path fill="#ffdc7e" d="M 271 246 L 275 254 L 267 254 Z" opacity="1" class="highcharts-point"></path><path fill="#ffdc7e" d="M 285 241 L 289 249 L 281 249 Z" opacity="1" class="highcharts-point"></path></g><g class="highcharts-series highcharts-series-1 highcharts-line-series" data-z-index="0.1" opacity="1" transform="translate(74,10) scale(1 1)" clip-path="url(#highcharts-s74cms3-122-)"><path fill="none" d="M 285.89189189189 245.1893 L 299.83783783784 235.4993 L 313.78378378378 225.8093 L 327.72972972973 214.5043 L 341.67567567568 203.1993 L 355.62162162162 191.8943 L 369.56756756757 180.58929999999998 L 383.51351351351 169.2843 L 397.45945945946 157.9793 L 411.40540540541 146.6743 L 425.35135135135 135.36929999999998 L 439.2972972973 124.06429999999997 L 453.24324324324 111.79029999999997 L 467.18918918919 99.51629999999997 L 481.13513513514 87.24229999999997 L 495.08108108108 74.96829999999997 L 509.02702702703 62.6943" class="highcharts-graph" data-z-index="1" stroke="#faaa89" stroke-width="2" stroke-linejoin="round" stroke-linecap="round"></path></g><g class="highcharts-markers highcharts-series-1 highcharts-line-series" data-z-index="0.1" opacity="1" transform="translate(74,10) scale(1 1)" clip-path="none"><path fill="#faaa89" d="M 285 249 A 4 4 0 1 1 285.00399999933336 248.99999800000018 Z" opacity="1" class="highcharts-point"></path><path fill="#faaa89" d="M 299 239 A 4 4 0 1 1 299.00399999933336 238.99999800000018 Z" opacity="1" class="highcharts-point"></path><path fill="#faaa89" d="M 313 230 A 4 4 0 1 1 313.00399999933336 229.99999800000018 Z" opacity="1" class="highcharts-point"></path><path fill="#faaa89" d="M 327 219 A 4 4 0 1 1 327.00399999933336 218.99999800000018 Z" opacity="1" class="highcharts-point"></path><path fill="#faaa89" d="M 341 207 A 4 4 0 1 1 341.00399999933336 206.99999800000018 Z" opacity="1" class="highcharts-point"></path><path fill="#faaa89" d="M 355 196 A 4 4 0 1 1 355.00399999933336 195.99999800000018 Z" opacity="1" class="highcharts-point"></path><path fill="#faaa89" d="M 369 185 A 4 4 0 1 1 369.00399999933336 184.99999800000018 Z" opacity="1" class="highcharts-point"></path><path fill="#faaa89" d="M 383 173 A 4 4 0 1 1 383.00399999933336 172.99999800000018 Z" opacity="1" class="highcharts-point"></path><path fill="#faaa89" d="M 397 162 A 4 4 0 1 1 397.00399999933336 161.99999800000018 Z" opacity="1" class="highcharts-point"></path><path fill="#faaa89" d="M 411 151 A 4 4 0 1 1 411.00399999933336 150.99999800000018 Z" opacity="1" class="highcharts-point"></path><path fill="#faaa89" d="M 425 139 A 4 4 0 1 1 425.00399999933336 138.99999800000018 Z" opacity="1" class="highcharts-point"></path><path fill="#faaa89" d="M 439 128 A 4 4 0 1 1 439.00399999933336 127.99999800000016 Z" opacity="1" class="highcharts-point"></path><path fill="#faaa89" d="M 453 116 A 4 4 0 1 1 453.00399999933336 115.99999800000016 Z" opacity="1" class="highcharts-point"></path><path fill="#faaa89" d="M 467 104 A 4 4 0 1 1 467.00399999933336 103.99999800000016 Z" opacity="1" class="highcharts-point"></path><path fill="#faaa89" d="M 481 91 A 4 4 0 1 1 481.00399999933336 90.99999800000016 Z" opacity="1" class="highcharts-point"></path><path fill="#faaa89" d="M 495 79 A 4 4 0 1 1 495.00399999933336 78.99999800000016 Z" opacity="1" class="highcharts-point"></path><path fill="#faaa89" d="M 509 67 A 4 4 0 1 1 509.00399999933336 66.99999800000016 Z" opacity="1" class="highcharts-point"></path></g></g><text x="300" text-anchor="middle" class="highcharts-title" data-z-index="4" style="color:#333333;font-size:18px;fill:#333333;" y="24"></text><text x="300" text-anchor="middle" class="highcharts-subtitle" data-z-index="4" style="color:#666666;fill:#666666;" y="24"></text><text x="10" text-anchor="start" class="highcharts-caption" data-z-index="4" style="color:#666666;fill:#666666;" y="397"></text><g class="highcharts-legend highcharts-no-tooltip" data-z-index="7" transform="translate(110,10)"><rect fill="none" class="highcharts-legend-box" rx="0" ry="0" x="0" y="0" width="111" height="47" visibility="visible"></rect><g data-z-index="1"><g><g class="highcharts-legend-item highcharts-line-series highcharts-color-undefined highcharts-series-0" data-z-index="1" transform="translate(8,3)"><path fill="none" d="M 0 11 L 16 11" class="highcharts-graph" stroke-dasharray="2,2" stroke="#ffdc7e" stroke-width="2"></path><path fill="#ffdc7e" d="M 8 7 L 12 15 L 4 15 Z" class="highcharts-point" opacity="1"></path><text x="21" style="color:#333333;cursor:pointer;font-size:12px;font-weight:bold;fill:#333333;" text-anchor="start" data-z-index="2" y="15">实际入组例数</text></g><g class="highcharts-legend-item highcharts-line-series highcharts-color-undefined highcharts-series-1" data-z-index="1" transform="translate(8,21)"><path fill="none" d="M 0 11 L 16 11" class="highcharts-graph" stroke="#faaa89" stroke-width="2"></path><path fill="#faaa89" d="M 8 15 A 4 4 0 1 1 8.003999999333336 14.999998000000167 Z" class="highcharts-point" opacity="1"></path><text x="21" y="15" style="color:#333333;cursor:pointer;font-size:12px;font-weight:bold;fill:#333333;" text-anchor="start" data-z-index="2">项目规划例数</text></g></g></g></g><g class="highcharts-axis-labels highcharts-xaxis-labels" data-z-index="7"><text x="83.56569783732367" style="color:#666666;cursor:default;font-size:11px;fill:#666666;" text-anchor="end" transform="translate(0,0) rotate(-45 83.56569783732367 349)" y="349" opacity="1">1/20</text><text x="111.45758972921067" style="color:#666666;cursor:default;font-size:11px;fill:#666666;" text-anchor="end" transform="translate(0,0) rotate(-45 111.45758972921067 349)" y="349" opacity="1">2/2</text><text x="139.3494816211107" style="color:#666666;cursor:default;font-size:11px;fill:#666666;" text-anchor="end" transform="translate(0,0) rotate(-45 139.3494816211107 349)" y="349" opacity="1">2/17</text><text x="167.2413735130007" style="color:#666666;cursor:default;font-size:11px;fill:#666666;" text-anchor="end" transform="translate(0,0) rotate(-45 167.2413735130007 349)" y="349" opacity="1">3/3</text><text x="195.1332654048907" style="color:#666666;cursor:default;font-size:11px;fill:#666666;" text-anchor="end" transform="translate(0,0) rotate(-45 195.1332654048907 349)" y="349" opacity="1">3/17</text><text x="223.0251572967807" style="color:#666666;cursor:default;font-size:11px;fill:#666666;" text-anchor="end" transform="translate(0,0) rotate(-45 223.0251572967807 349)" y="349" opacity="1">3/31</text><text x="250.9170491886707" style="color:#666666;cursor:default;font-size:11px;fill:#666666;" text-anchor="end" transform="translate(0,0) rotate(-45 250.9170491886707 349)" y="349" opacity="1">4/14</text><text x="278.80894108057066" style="color:#666666;cursor:default;font-size:11px;fill:#666666;" text-anchor="end" transform="translate(0,0) rotate(-45 278.80894108057066 349)" y="349" opacity="1">4/28</text><text x="306.70083297246066" style="color:#666666;cursor:default;font-size:11px;fill:#666666;" text-anchor="end" transform="translate(0,0) rotate(-45 306.70083297246066 349)" y="349" opacity="1">5/12</text><text x="334.59272486435066" style="color:#666666;cursor:default;font-size:11px;fill:#666666;" text-anchor="end" transform="translate(0,0) rotate(-45 334.59272486435066 349)" y="349" opacity="1">5/26</text><text x="362.48461675624065" style="color:#666666;cursor:default;font-size:11px;fill:#666666;" text-anchor="end" transform="translate(0,0) rotate(-45 362.48461675624065 349)" y="349" opacity="1">6/9</text><text x="390.37650864813065" style="color:#666666;cursor:default;font-size:11px;fill:#666666;" text-anchor="end" transform="translate(0,0) rotate(-45 390.37650864813065 349)" y="349" opacity="1">6/24</text><text x="418.26840054003065" style="color:#666666;cursor:default;font-size:11px;fill:#666666;" text-anchor="end" transform="translate(0,0) rotate(-45 418.26840054003065 349)" y="349" opacity="1">7/8</text><text x="446.16029243192065" style="color:#666666;cursor:default;font-size:11px;fill:#666666;" text-anchor="end" transform="translate(0,0) rotate(-45 446.16029243192065 349)" y="349" opacity="1">7/22</text><text x="474.05218432381065" style="color:#666666;cursor:default;font-size:11px;fill:#666666;" text-anchor="end" transform="translate(0,0) rotate(-45 474.05218432381065 349)" y="349" opacity="1">8/5</text><text x="501.94407621570065" style="color:#666666;cursor:default;font-size:11px;fill:#666666;" text-anchor="end" transform="translate(0,0) rotate(-45 501.94407621570065 349)" y="349" opacity="1">8/20</text><text x="529.8359681075907" style="color:#666666;cursor:default;font-size:11px;fill:#666666;" text-anchor="end" transform="translate(0,0) rotate(-45 529.8359681075907 349)" y="349" opacity="1">9/3</text><text x="557.7278599994906" style="color:#666666;cursor:default;font-size:11px;fill:#666666;" text-anchor="end" transform="translate(0,0) rotate(-45 557.7278599994906 349)" y="349" opacity="1">9/17</text><text x="585.6197518913807" style="color:#666666;cursor:default;font-size:11px;fill:#666666;" text-anchor="end" transform="translate(0,0) rotate(-45 585.6197518913807 349)" y="349" opacity="1">9/30</text></g><g class="highcharts-axis-labels highcharts-xaxis-labels" data-z-index="7"></g><g class="highcharts-axis-labels highcharts-yaxis-labels" data-z-index="7"><text x="59" style="color:#666666;cursor:default;font-size:11px;fill:#666666;" text-anchor="end" transform="translate(0,0)" y="337" opacity="1">0</text><text x="59" style="color:#666666;cursor:default;font-size:11px;fill:#666666;" text-anchor="end" transform="translate(0,0)" y="272" opacity="1">2k</text><text x="59" style="color:#666666;cursor:default;font-size:11px;fill:#666666;" text-anchor="end" transform="translate(0,0)" y="208" opacity="1">4k</text><text x="59" style="color:#666666;cursor:default;font-size:11px;fill:#666666;" text-anchor="end" transform="translate(0,0)" y="143" opacity="1">6k</text><text x="59" style="color:#666666;cursor:default;font-size:11px;fill:#666666;" text-anchor="end" transform="translate(0,0)" y="79" opacity="1">8k</text><text x="59" style="color:#666666;cursor:default;font-size:11px;fill:#666666;" text-anchor="end" transform="translate(0,0)" y="14" opacity="1">10k</text></g><g class="highcharts-control-points" data-z-index="99" clip-path="url(#highcharts-s74cms3-160-)"></g></svg>